<svg xmlns="http://www.w3.org/2000/svg" xmlns:xlink="http://www.w3.org/1999/xlink" width="80" zoomAndPan="magnify" viewBox="0 0 375 374.999991" height="80" preserveAspectRatio="xMidYMid meet" version="1.0"><defs><g/><clipPath id="6b4526a7f1"><path d="M 0 164.351562 L 317.527344 164.351562 L 317.527344 194.386719 L 0 194.386719 Z M 0 164.351562 " clip-rule="nonzero"/></clipPath></defs><g fill="#1c2120" fill-opacity="1"><g transform="translate(103.551756, 250.124984)"><g><path d="M 150.703125 -145.820312 C 150.703125 -146.03125 150.703125 -146.457031 150.914062 -146.457031 C 151.128906 -146.671875 151.339844 -146.882812 151.550781 -146.882812 C 151.976562 -146.882812 152.402344 -147.09375 152.402344 -147.730469 C 152.402344 -148.15625 151.976562 -148.582031 151.550781 -148.582031 L 149.855469 -148.582031 C 149.640625 -148.367188 149.640625 -148.367188 149.640625 -148.367188 L 139.878906 -148.367188 C 139.453125 -148.367188 139.242188 -148.15625 139.027344 -147.945312 L 104.21875 -56.035156 C 99.972656 -45 87.664062 -39.269531 76.414062 -43.511719 C 70.683594 -45.636719 66.222656 -50.304688 64.101562 -55.824219 C 64.101562 -56.035156 64.101562 -56.035156 63.890625 -56.035156 L 29.078125 -147.945312 C 29.078125 -148.15625 28.65625 -148.367188 28.441406 -148.367188 L 16.132812 -148.367188 C 15.707031 -148.367188 15.28125 -148.15625 15.28125 -147.730469 C 15.28125 -147.09375 15.707031 -146.882812 16.132812 -146.882812 C 16.554688 -146.882812 16.980469 -146.457031 16.980469 -145.820312 L 16.980469 -1.699219 C 16.980469 -1.0625 16.554688 -0.636719 15.917969 -0.636719 C 15.496094 -0.636719 15.28125 -0.425781 15.28125 0.210938 C 15.28125 0.636719 15.496094 0.847656 15.917969 0.847656 L 19.527344 0.847656 C 19.953125 0.847656 20.375 0.636719 20.375 0.210938 C 20.375 -0.425781 19.953125 -0.636719 19.527344 -0.636719 C 19.101562 -0.636719 18.679688 -1.0625 18.679688 -1.699219 L 18.679688 -143.0625 L 73.015625 0.425781 C 73.230469 0.847656 73.441406 1.0625 73.867188 1.0625 L 83.839844 1.0625 C 84.054688 1.0625 84.476562 0.847656 84.476562 0.425781 L 84.902344 -0.425781 C 84.902344 -0.636719 84.902344 -0.847656 84.902344 -1.0625 L 67.074219 -47.96875 C 69.410156 -45.421875 72.59375 -43.300781 75.988281 -42.027344 C 78.535156 -40.964844 81.292969 -40.542969 84.054688 -40.542969 C 93.605469 -40.542969 102.308594 -46.484375 105.703125 -55.398438 L 139.027344 -143.0625 L 139.027344 -1.699219 C 139.027344 -1.484375 138.816406 -1.0625 138.816406 -1.0625 C 138.605469 -0.847656 138.390625 -0.636719 138.179688 -0.636719 C 137.542969 -0.636719 137.332031 -0.425781 137.332031 0.210938 C 137.332031 0.636719 137.542969 0.847656 138.179688 0.847656 L 151.550781 0.847656 C 151.765625 0.847656 151.976562 0.847656 151.976562 0.636719 C 152.1875 0.636719 152.402344 0.425781 152.402344 0.210938 C 152.402344 -0.210938 152.1875 -0.425781 151.976562 -0.425781 C 151.976562 -0.636719 151.765625 -0.636719 151.550781 -0.636719 C 150.914062 -0.636719 150.492188 -1.0625 150.492188 -1.699219 Z M 150.703125 -145.820312 "/></g></g></g><g fill="#023610" fill-opacity="1"><g transform="translate(174.366877, 272.933096)"><g><path d="M 5.632812 -7.28125 C 5.632812 -7.28125 5.621094 -7.28125 5.621094 -7.28125 C 5.621094 -7.292969 5.621094 -7.292969 5.621094 -7.292969 C 5.621094 -7.292969 5.609375 -7.292969 5.609375 -7.292969 C 5.609375 -7.304688 5.609375 -7.304688 5.609375 -7.304688 C 5.601562 -7.304688 5.601562 -7.304688 5.601562 -7.304688 C 5.601562 -7.304688 5.589844 -7.304688 5.589844 -7.304688 L 0.785156 -7.304688 C 0.761719 -7.304688 0.753906 -7.292969 0.753906 -7.261719 C 0.753906 -7.238281 0.761719 -7.21875 0.785156 -7.21875 C 0.816406 -7.21875 0.835938 -7.199219 0.835938 -7.175781 L 0.835938 -0.0820312 C 0.835938 -0.0507812 0.816406 -0.03125 0.785156 -0.03125 C 0.761719 -0.03125 0.753906 -0.0195312 0.753906 0 C 0.753906 0.03125 0.761719 0.0429688 0.785156 0.0429688 L 5.589844 0.0429688 C 5.589844 0.0429688 5.601562 0.0429688 5.601562 0.0429688 C 5.601562 0.0429688 5.601562 0.0429688 5.609375 0.0429688 C 5.609375 0.03125 5.621094 0.03125 5.621094 0.03125 C 5.621094 0.0195312 5.632812 0.0195312 5.632812 0.0195312 C 5.632812 0.0195312 5.632812 0.0117188 5.632812 0.0117188 C 5.632812 0.0117188 5.632812 0.0117188 5.632812 0 L 5.632812 -0.398438 C 5.632812 -0.40625 5.632812 -0.417969 5.621094 -0.429688 C 5.609375 -0.4375 5.589844 -0.4375 5.578125 -0.4375 C 5.570312 -0.4375 3.75 -0.0429688 2.265625 -0.03125 L 1.398438 -0.03125 L 1.398438 -3.71875 L 4.253906 -3.71875 C 4.273438 -3.71875 4.292969 -3.738281 4.292969 -3.761719 C 4.292969 -3.78125 4.273438 -3.804688 4.253906 -3.804688 L 1.398438 -3.804688 L 1.398438 -7.21875 L 2.265625 -7.21875 C 3.75 -7.21875 5.570312 -6.820312 5.578125 -6.820312 C 5.589844 -6.820312 5.589844 -6.820312 5.589844 -6.820312 C 5.601562 -6.820312 5.609375 -6.820312 5.621094 -6.832031 C 5.632812 -6.84375 5.632812 -6.855469 5.632812 -6.863281 L 5.632812 -7.261719 C 5.632812 -7.261719 5.632812 -7.269531 5.632812 -7.269531 C 5.632812 -7.269531 5.632812 -7.269531 5.632812 -7.28125 Z M 5.632812 -7.28125 "/></g></g></g><g fill="#023610" fill-opacity="1"><g transform="translate(180.245432, 272.933096)"><g><path d="M 3.300781 -7.40625 C 1.746094 -7.40625 0.480469 -6.570312 0.480469 -5.546875 C 0.480469 -4.960938 0.886719 -4.417969 1.597656 -4.0625 L 4.597656 -2.550781 C 5.140625 -2.265625 5.453125 -1.847656 5.453125 -1.390625 C 5.453125 -0.585938 4.449219 0.0820312 3.207031 0.0820312 C 1.996094 0.0820312 0.992188 -0.5625 0.960938 -1.359375 C 0.949219 -1.367188 0.949219 -1.378906 0.941406 -1.390625 C 0.929688 -1.390625 0.917969 -1.398438 0.910156 -1.390625 L 0.5 -1.328125 C 0.492188 -1.328125 0.480469 -1.316406 0.46875 -1.304688 C 0.460938 -1.296875 0.460938 -1.285156 0.46875 -1.273438 C 0.773438 -0.429688 1.890625 0.167969 3.207031 0.167969 C 4.753906 0.167969 6.019531 -0.667969 6.019531 -1.703125 C 6.019531 -2.289062 5.609375 -2.832031 4.910156 -3.1875 L 1.910156 -4.703125 C 1.359375 -4.984375 1.042969 -5.402344 1.042969 -5.851562 C 1.042969 -6.664062 2.058594 -7.335938 3.300781 -7.335938 C 4.511719 -7.335938 5.515625 -6.6875 5.546875 -5.890625 C 5.546875 -5.882812 5.558594 -5.871094 5.570312 -5.859375 C 5.570312 -5.851562 5.589844 -5.851562 5.601562 -5.851562 L 6.007812 -5.921875 C 6.019531 -5.921875 6.027344 -5.933594 6.039062 -5.945312 C 6.039062 -5.953125 6.039062 -5.964844 6.039062 -5.976562 C 5.734375 -6.820312 4.605469 -7.40625 3.300781 -7.40625 Z M 3.300781 -7.40625 "/></g></g></g><g fill="#023610" fill-opacity="1"><g transform="translate(186.760919, 272.933096)"><g><path d="M 6.164062 -7.28125 C 6.152344 -7.28125 6.152344 -7.28125 6.152344 -7.28125 C 6.152344 -7.292969 6.152344 -7.292969 6.152344 -7.292969 C 6.152344 -7.292969 6.144531 -7.292969 6.144531 -7.292969 C 6.144531 -7.304688 6.144531 -7.304688 6.144531 -7.304688 C 6.132812 -7.304688 6.132812 -7.304688 6.132812 -7.304688 C 6.132812 -7.304688 6.121094 -7.304688 6.121094 -7.304688 L 3.386719 -7.304688 C 3.386719 -7.304688 3.386719 -7.304688 3.375 -7.304688 C 3.375 -7.304688 2.894531 -7.304688 2.894531 -7.304688 L 0.144531 -7.304688 C 0.136719 -7.304688 0.136719 -7.304688 0.136719 -7.304688 C 0.136719 -7.304688 0.136719 -7.292969 0.125 -7.292969 C 0.125 -7.292969 0.113281 -7.28125 0.113281 -7.28125 C 0.113281 -7.269531 0.113281 -7.269531 0.113281 -7.269531 C 0.113281 -7.269531 0.113281 -7.261719 0.113281 -7.261719 L 0.113281 -6.863281 C 0.113281 -6.855469 0.113281 -6.832031 0.125 -6.832031 C 0.136719 -6.820312 0.144531 -6.820312 0.144531 -6.820312 C 0.15625 -6.820312 0.15625 -6.820312 0.167969 -6.820312 C 0.175781 -6.820312 1.421875 -7.21875 2.433594 -7.21875 L 2.851562 -7.21875 L 2.851562 0.0117188 C 2.851562 0.03125 2.875 0.0429688 2.894531 0.0429688 L 3.375 0.0429688 C 3.40625 0.0429688 3.417969 0.03125 3.417969 0.0117188 L 3.417969 -7.21875 L 3.84375 -7.21875 C 4.859375 -7.21875 6.101562 -6.820312 6.113281 -6.820312 C 6.113281 -6.820312 6.121094 -6.820312 6.121094 -6.820312 C 6.132812 -6.820312 6.144531 -6.820312 6.144531 -6.832031 C 6.152344 -6.832031 6.164062 -6.855469 6.164062 -6.863281 L 6.164062 -7.261719 C 6.164062 -7.261719 6.164062 -7.269531 6.164062 -7.269531 C 6.164062 -7.269531 6.164062 -7.269531 6.164062 -7.28125 Z M 6.164062 -7.28125 "/></g></g></g><g fill="#023610" fill-opacity="1"><g transform="translate(193.046689, 272.933096)"><g><path d="M 3.332031 -7.3125 L 1.359375 -7.304688 L 0.785156 -7.304688 C 0.761719 -7.304688 0.753906 -7.292969 0.753906 -7.261719 C 0.753906 -7.238281 0.761719 -7.21875 0.785156 -7.21875 C 0.816406 -7.21875 0.835938 -7.199219 0.835938 -7.175781 L 0.835938 -0.0820312 C 0.835938 -0.0507812 0.816406 -0.03125 0.785156 -0.03125 C 0.761719 -0.03125 0.753906 -0.0195312 0.753906 0 C 0.753906 0.03125 0.761719 0.0429688 0.785156 0.0429688 L 1.359375 0.0429688 C 1.378906 0.0429688 1.398438 0.03125 1.398438 0 L 1.398438 -1.398438 C 1.652344 -0.542969 2.445312 0.0429688 3.332031 0.0429688 C 5.421875 0.0429688 7.125 -1.597656 7.125 -3.636719 C 7.125 -5.664062 5.421875 -7.3125 3.332031 -7.3125 Z M 1.398438 -7.21875 L 3.332031 -7.230469 C 5.035156 -7.230469 6.425781 -5.609375 6.425781 -3.636719 C 6.425781 -1.652344 5.035156 -0.03125 3.332031 -0.03125 C 2.265625 -0.0429688 1.398438 -0.898438 1.398438 -1.972656 Z M 1.398438 -7.21875 "/></g></g></g><g fill="#023610" fill-opacity="1"><g transform="translate(175.222346, 284.183096)"><g><path d="M 4.722656 -5.046875 C 4.722656 -6.332031 3.6875 -7.375 2.402344 -7.40625 C 2.371094 -7.417969 2.351562 -7.417969 2.320312 -7.40625 L 2.308594 -7.40625 C 1.671875 -7.40625 1.054688 -7.125 0.617188 -6.644531 C 0.605469 -6.632812 0.605469 -6.601562 0.617188 -6.59375 L 0.917969 -6.320312 C 0.929688 -6.308594 0.941406 -6.300781 0.949219 -6.308594 C 0.960938 -6.308594 0.972656 -6.320312 0.980469 -6.332031 C 1.285156 -6.9375 1.785156 -7.3125 2.320312 -7.335938 C 2.328125 -7.335938 2.339844 -7.335938 2.359375 -7.335938 C 2.371094 -7.335938 2.382812 -7.335938 2.390625 -7.335938 L 2.402344 -7.335938 C 3.289062 -7.304688 4.023438 -6.277344 4.023438 -5.046875 C 4.023438 -3.226562 3.09375 -1.535156 1.535156 -0.511719 C 1.523438 -0.511719 1.515625 -0.5 1.503906 -0.492188 C 1.234375 -0.3125 0.949219 -0.167969 0.65625 -0.0429688 L 0.625 -0.03125 C 0.625 -0.03125 0.617188 -0.03125 0.617188 -0.03125 C 0.617188 -0.0195312 0.617188 -0.0195312 0.617188 -0.0195312 C 0.605469 -0.0195312 0.605469 -0.0195312 0.605469 -0.0117188 C 0.605469 -0.0117188 0.605469 0 0.605469 0 C 0.59375 0 0.59375 0 0.605469 0 C 0.59375 0.0117188 0.59375 0.0117188 0.605469 0.0117188 C 0.605469 0.0117188 0.605469 0.0195312 0.605469 0.0195312 C 0.605469 0.0195312 0.605469 0.0195312 0.605469 0.03125 C 0.605469 0.03125 0.605469 0.03125 0.617188 0.03125 C 0.617188 0.03125 0.617188 0.03125 0.617188 0.0429688 C 0.617188 0.0429688 0.617188 0.0429688 0.625 0.0429688 C 0.636719 0.0429688 0.636719 0.0429688 0.636719 0.0429688 L 4.648438 0.0429688 C 4.671875 0.0429688 4.691406 0.03125 4.691406 0.0117188 L 4.691406 -0.480469 C 4.691406 -0.5 4.671875 -0.523438 4.648438 -0.523438 L 1.921875 -0.523438 C 3.675781 -1.535156 4.722656 -3.21875 4.722656 -5.046875 Z M 1.566406 -0.4375 L 1.589844 -0.4375 C 1.558594 -0.417969 1.515625 -0.398438 1.472656 -0.375 C 1.503906 -0.398438 1.535156 -0.417969 1.566406 -0.4375 Z M 1.566406 -0.4375 "/></g></g></g><g fill="#023610" fill-opacity="1"><g transform="translate(180.71456, 284.183096)"><g><path d="M 4.03125 -7.523438 C 2.214844 -7.523438 0.730469 -5.828125 0.730469 -3.738281 C 0.730469 -1.652344 2.214844 0.0429688 4.03125 0.0429688 C 5.859375 0.0429688 7.34375 -1.652344 7.34375 -3.738281 C 7.34375 -5.828125 5.859375 -7.523438 4.03125 -7.523438 Z M 4.03125 -7.4375 C 5.472656 -7.4375 6.644531 -5.777344 6.644531 -3.738281 C 6.644531 -1.691406 5.472656 -0.03125 4.03125 -0.03125 C 2.601562 -0.03125 1.429688 -1.691406 1.429688 -3.738281 C 1.429688 -5.777344 2.601562 -7.4375 4.03125 -7.4375 Z M 4.03125 -7.4375 "/></g></g></g><g fill="#023610" fill-opacity="1"><g transform="translate(188.796262, 284.183096)"><g><path d="M 4.722656 -5.046875 C 4.722656 -6.332031 3.6875 -7.375 2.402344 -7.40625 C 2.371094 -7.417969 2.351562 -7.417969 2.320312 -7.40625 L 2.308594 -7.40625 C 1.671875 -7.40625 1.054688 -7.125 0.617188 -6.644531 C 0.605469 -6.632812 0.605469 -6.601562 0.617188 -6.59375 L 0.917969 -6.320312 C 0.929688 -6.308594 0.941406 -6.300781 0.949219 -6.308594 C 0.960938 -6.308594 0.972656 -6.320312 0.980469 -6.332031 C 1.285156 -6.9375 1.785156 -7.3125 2.320312 -7.335938 C 2.328125 -7.335938 2.339844 -7.335938 2.359375 -7.335938 C 2.371094 -7.335938 2.382812 -7.335938 2.390625 -7.335938 L 2.402344 -7.335938 C 3.289062 -7.304688 4.023438 -6.277344 4.023438 -5.046875 C 4.023438 -3.226562 3.09375 -1.535156 1.535156 -0.511719 C 1.523438 -0.511719 1.515625 -0.5 1.503906 -0.492188 C 1.234375 -0.3125 0.949219 -0.167969 0.65625 -0.0429688 L 0.625 -0.03125 C 0.625 -0.03125 0.617188 -0.03125 0.617188 -0.03125 C 0.617188 -0.0195312 0.617188 -0.0195312 0.617188 -0.0195312 C 0.605469 -0.0195312 0.605469 -0.0195312 0.605469 -0.0117188 C 0.605469 -0.0117188 0.605469 0 0.605469 0 C 0.59375 0 0.59375 0 0.605469 0 C 0.59375 0.0117188 0.59375 0.0117188 0.605469 0.0117188 C 0.605469 0.0117188 0.605469 0.0195312 0.605469 0.0195312 C 0.605469 0.0195312 0.605469 0.0195312 0.605469 0.03125 C 0.605469 0.03125 0.605469 0.03125 0.617188 0.03125 C 0.617188 0.03125 0.617188 0.03125 0.617188 0.0429688 C 0.617188 0.0429688 0.617188 0.0429688 0.625 0.0429688 C 0.636719 0.0429688 0.636719 0.0429688 0.636719 0.0429688 L 4.648438 0.0429688 C 4.671875 0.0429688 4.691406 0.03125 4.691406 0.0117188 L 4.691406 -0.480469 C 4.691406 -0.5 4.671875 -0.523438 4.648438 -0.523438 L 1.921875 -0.523438 C 3.675781 -1.535156 4.722656 -3.21875 4.722656 -5.046875 Z M 1.566406 -0.4375 L 1.589844 -0.4375 C 1.558594 -0.417969 1.515625 -0.398438 1.472656 -0.375 C 1.503906 -0.398438 1.535156 -0.417969 1.566406 -0.4375 Z M 1.566406 -0.4375 "/></g></g></g><g fill="#023610" fill-opacity="1"><g transform="translate(194.288476, 284.183096)"><g><path d="M 4.722656 -5.046875 C 4.722656 -6.332031 3.6875 -7.375 2.402344 -7.40625 C 2.371094 -7.417969 2.351562 -7.417969 2.320312 -7.40625 L 2.308594 -7.40625 C 1.671875 -7.40625 1.054688 -7.125 0.617188 -6.644531 C 0.605469 -6.632812 0.605469 -6.601562 0.617188 -6.59375 L 0.917969 -6.320312 C 0.929688 -6.308594 0.941406 -6.300781 0.949219 -6.308594 C 0.960938 -6.308594 0.972656 -6.320312 0.980469 -6.332031 C 1.285156 -6.9375 1.785156 -7.3125 2.320312 -7.335938 C 2.328125 -7.335938 2.339844 -7.335938 2.359375 -7.335938 C 2.371094 -7.335938 2.382812 -7.335938 2.390625 -7.335938 L 2.402344 -7.335938 C 3.289062 -7.304688 4.023438 -6.277344 4.023438 -5.046875 C 4.023438 -3.226562 3.09375 -1.535156 1.535156 -0.511719 C 1.523438 -0.511719 1.515625 -0.5 1.503906 -0.492188 C 1.234375 -0.3125 0.949219 -0.167969 0.65625 -0.0429688 L 0.625 -0.03125 C 0.625 -0.03125 0.617188 -0.03125 0.617188 -0.03125 C 0.617188 -0.0195312 0.617188 -0.0195312 0.617188 -0.0195312 C 0.605469 -0.0195312 0.605469 -0.0195312 0.605469 -0.0117188 C 0.605469 -0.0117188 0.605469 0 0.605469 0 C 0.59375 0 0.59375 0 0.605469 0 C 0.59375 0.0117188 0.59375 0.0117188 0.605469 0.0117188 C 0.605469 0.0117188 0.605469 0.0195312 0.605469 0.0195312 C 0.605469 0.0195312 0.605469 0.0195312 0.605469 0.03125 C 0.605469 0.03125 0.605469 0.03125 0.617188 0.03125 C 0.617188 0.03125 0.617188 0.03125 0.617188 0.0429688 C 0.617188 0.0429688 0.617188 0.0429688 0.625 0.0429688 C 0.636719 0.0429688 0.636719 0.0429688 0.636719 0.0429688 L 4.648438 0.0429688 C 4.671875 0.0429688 4.691406 0.03125 4.691406 0.0117188 L 4.691406 -0.480469 C 4.691406 -0.5 4.671875 -0.523438 4.648438 -0.523438 L 1.921875 -0.523438 C 3.675781 -1.535156 4.722656 -3.21875 4.722656 -5.046875 Z M 1.566406 -0.4375 L 1.589844 -0.4375 C 1.558594 -0.417969 1.515625 -0.398438 1.472656 -0.375 C 1.503906 -0.398438 1.535156 -0.417969 1.566406 -0.4375 Z M 1.566406 -0.4375 "/></g></g></g><g clip-path="url(#6b4526a7f1)"><path fill="#ffffff" d="M -17.527344 164.351562 L 317.652344 164.351562 L 317.652344 194.359375 L -17.527344 194.359375 Z M -17.527344 164.351562 " fill-opacity="1" fill-rule="nonzero"/></g><g fill="#023610" fill-opacity="1"><g transform="translate(100.804685, 195.024993)"><g><path d="M 44.324219 -14.503906 C 44.160156 -14.882812 43.675781 -15.097656 43.296875 -14.9375 C 30.902344 -9.523438 18.128906 -9.523438 13.207031 -9.742188 L 13.746094 -10.335938 C 26.574219 -24.191406 31.824219 -29.820312 31.875 -29.875 C 32.148438 -30.089844 32.148438 -30.523438 31.984375 -30.792969 C 31.769531 -31.117188 31.390625 -31.226562 31.066406 -31.066406 C 27.113281 -29.441406 20.1875 -27.277344 18.453125 -28.414062 C 16.289062 -29.820312 16.5625 -31.066406 16.5625 -31.066406 C 16.667969 -31.496094 16.453125 -31.929688 16.074219 -32.039062 C 15.640625 -32.148438 15.207031 -31.929688 15.097656 -31.550781 C 15.046875 -31.445312 14.394531 -29.226562 17.589844 -27.167969 C 18.941406 -26.300781 21.648438 -26.464844 25.921875 -27.710938 C 26.84375 -27.980469 27.761719 -28.25 28.574219 -28.519531 C 15.640625 -14.558594 13.421875 -12.175781 11.363281 -10.011719 C 8.007812 -9.742188 1.570312 -8.660156 0.59375 -4.707031 C 0.164062 -3.140625 0.867188 -1.839844 2.488281 -1.839844 C 4.761719 -1.839844 7.957031 -4.4375 11.796875 -8.28125 C 12.71875 -8.226562 14.289062 -8.117188 16.34375 -8.117188 C 22.621094 -8.117188 33.390625 -8.929688 43.945312 -13.53125 C 44.324219 -13.691406 44.488281 -14.125 44.324219 -14.503906 Z M 2.273438 -4.871094 C 2.8125 -5.84375 4.4375 -7.523438 9.578125 -8.28125 C 6.925781 -4.546875 0.59375 -1.785156 2.273438 -4.871094 Z M 2.273438 -4.871094 "/></g></g></g><g fill="#023610" fill-opacity="1"><g transform="translate(144.098403, 195.024993)"><g><path d="M 33.390625 -14.558594 C 33.285156 -14.992188 32.796875 -15.152344 32.417969 -15.046875 C 31.496094 -14.667969 29.710938 -14.070312 29.710938 -14.070312 C 23.324219 -11.582031 13.585938 -8.550781 11.960938 -9.363281 C 11.851562 -9.417969 11.851562 -9.472656 11.851562 -9.523438 C 11.796875 -10.121094 12.449219 -11.257812 13.53125 -12.609375 C 14.667969 -13.746094 15.316406 -14.503906 16.941406 -16.507812 C 17.265625 -17.265625 15.910156 -17.371094 15.476562 -17.425781 C 15.207031 -17.425781 14.992188 -17.425781 14.71875 -17.425781 C 14.828125 -18.941406 13.746094 -20.1875 12.285156 -20.511719 C 8.820312 -21.378906 5.464844 -19.375 2.761719 -17.371094 C 1.136719 -16.074219 -0.757812 -14.882812 -1.625 -12.933594 C -2.054688 -11.582031 -0.269531 -11.148438 0.703125 -11.527344 C 5.25 -12.664062 9.578125 -14.449219 14.289062 -15.640625 C 13.421875 -14.828125 11.636719 -12.609375 11.636719 -12.609375 C 10.769531 -11.363281 10.230469 -10.175781 10.335938 -9.308594 C 10.390625 -8.765625 10.714844 -8.28125 11.257812 -8.007812 C 11.582031 -7.847656 12.121094 -7.738281 12.773438 -7.738281 C 16.777344 -7.738281 25.542969 -10.878906 29.117188 -12.230469 C 31.445312 -13.042969 32.90625 -13.585938 32.960938 -13.585938 C 33.230469 -13.691406 33.390625 -13.910156 33.445312 -14.179688 C 33.445312 -14.34375 33.445312 -14.449219 33.390625 -14.558594 Z M 12.988281 -16.886719 C 8.605469 -15.75 4.4375 -14.015625 0.0546875 -12.988281 C 2.433594 -15.425781 5.25 -17.644531 8.496094 -18.832031 C 10.121094 -19.429688 13.910156 -19.539062 12.988281 -16.886719 Z M 12.988281 -16.886719 "/></g></g></g><g fill="#023610" fill-opacity="1"><g transform="translate(176.514569, 195.024993)"><g><path d="M 38.75 -14.558594 C 38.640625 -14.9375 38.207031 -15.152344 37.777344 -14.992188 C 35.828125 -14.289062 33.933594 -13.585938 32.148438 -12.933594 C 32.148438 -12.933594 22.621094 -9.417969 20.621094 -8.605469 C 13.53125 -5.84375 6.167969 -2.921875 4.222656 -3.625 C 3.789062 -3.789062 3.519531 -4.003906 3.355469 -4.382812 C 2.921875 -5.574219 4.003906 -7.847656 4.601562 -8.875 C 7.738281 -9.632812 10.988281 -10.28125 13.855469 -11.960938 C 14.9375 -12.664062 16.289062 -13.800781 15.75 -15.261719 C 14.394531 -16.777344 12.230469 -15.964844 10.660156 -15.425781 C 6.277344 -13.746094 2.003906 -11.472656 -1.40625 -8.117188 C -0.542969 -10.175781 0.269531 -12.394531 1.570312 -13.207031 C 7.738281 -17.210938 14.394531 -20.457031 20.566406 -24.515625 C 22.621094 -25.921875 24.839844 -27.382812 26.25 -29.496094 C 27.058594 -30.6875 26.953125 -32.632812 25.542969 -33.285156 C 22.945312 -34.582031 20.078125 -33.285156 17.695312 -32.148438 C 6.820312 -26.03125 -1.785156 -16.019531 -4.058594 -4.328125 C -4.113281 -3.789062 -3.679688 -3.570312 -3.191406 -3.898438 C -2.164062 -4.925781 -0.703125 -7.578125 2.652344 -8.441406 C 2.054688 -7.144531 1.460938 -5.304688 1.949219 -3.84375 C 2.433594 -2.488281 3.789062 -2.003906 4.925781 -2.003906 C 7.792969 -2.003906 13.207031 -4.058594 21.160156 -7.199219 C 24.027344 -8.335938 38.261719 -13.53125 38.316406 -13.585938 C 38.695312 -13.691406 38.914062 -14.125 38.75 -14.558594 Z M 14.449219 -14.667969 C 11.742188 -11.691406 7.359375 -11.203125 3.625 -10.28125 C 7.089844 -12.070312 10.5 -14.289062 14.449219 -14.667969 Z M 18.832031 -30.957031 C 20.890625 -31.875 23.542969 -33.175781 25.4375 -31.390625 C 24.300781 -28.738281 21.703125 -27.167969 19.375 -25.597656 C 13.746094 -21.917969 7.738281 -18.832031 2.003906 -15.371094 C 6.117188 -21.917969 11.960938 -27.4375 18.832031 -30.957031 Z M 18.832031 -30.957031 "/></g></g></g><g fill="#023610" fill-opacity="1"><g transform="translate(214.288332, 195.024993)"><g><path d="M 29.277344 -14.558594 C 29.117188 -14.9375 28.683594 -15.152344 28.304688 -14.992188 C 27.871094 -14.828125 25.164062 -13.855469 24.894531 -13.746094 C 15.585938 -10.445312 9.6875 -11.039062 6.875 -11.796875 C 8.605469 -14.234375 8.984375 -17.859375 6.925781 -20.1875 C 5.25 -22.242188 1.675781 -21.757812 0.378906 -19.484375 C -0.59375 -18.128906 -0.324219 -16.34375 0.164062 -14.828125 C -1.460938 -13.257812 -3.191406 -11.636719 -4.113281 -9.472656 C -4.707031 -8.226562 -3.570312 -6.765625 -2.21875 -6.765625 C 0.867188 -6.546875 3.625 -8.386719 5.683594 -10.5 L 5.738281 -10.554688 C 7.035156 -10.121094 9.039062 -9.6875 11.851562 -9.6875 C 14.9375 -9.6875 18.886719 -10.175781 23.867188 -11.796875 C 24.027344 -11.851562 28.792969 -13.53125 28.847656 -13.585938 C 29.226562 -13.691406 29.441406 -14.125 29.277344 -14.558594 Z M 6.710938 -17.15625 C 7.199219 -15.371094 6.222656 -13.746094 5.25 -12.339844 C 3.898438 -12.933594 2.976562 -13.636719 2.21875 -14.503906 C 3.464844 -15.910156 2.597656 -16.398438 1.351562 -15.75 C 0.59375 -20.457031 6.117188 -21.539062 6.710938 -17.15625 Z M -2.867188 -8.441406 C -2.054688 -10.445312 -0.542969 -12.015625 0.972656 -13.53125 C 1.949219 -12.609375 3.03125 -11.796875 4.167969 -11.09375 C 2.21875 -9.417969 -0.214844 -7.902344 -2.867188 -8.441406 Z M -2.867188 -8.441406 "/></g></g></g><g fill="#023610" fill-opacity="1"><g transform="translate(242.591595, 195.024993)"><g><path d="M 32.632812 -14.558594 C 32.472656 -14.992188 32.039062 -15.152344 31.660156 -15.046875 C 27.816406 -13.636719 24.300781 -12.394531 21.050781 -11.257812 C 16.667969 -9.957031 14.179688 -9.632812 12.070312 -9.632812 C 12.71875 -10.824219 13.746094 -12.121094 13.152344 -13.476562 C 12.070312 -14.71875 10.28125 -14.125 8.984375 -13.691406 C 3.140625 -11.636719 -0.648438 -6.386719 -3.625 -1.300781 C -2.867188 -5.359375 -1.40625 -9.253906 0.488281 -12.933594 C 6.277344 -15.695312 12.015625 -18.5625 17.589844 -21.757812 C 19.96875 -23.21875 22.460938 -24.625 24.515625 -26.574219 C 25.652344 -27.761719 26.789062 -29.171875 26.84375 -30.902344 C 26.953125 -32.253906 25.652344 -33.445312 24.300781 -33.5 C 21.105469 -33.769531 18.128906 -32.203125 15.476562 -30.578125 C 10.933594 -27.546875 7.035156 -23.757812 3.464844 -19.644531 C -1.730469 -13.964844 -4.65625 -6.441406 -5.574219 1.191406 C -5.574219 1.570312 -5.574219 2.597656 -4.816406 2.542969 C -3.949219 2.433594 -3.300781 1.246094 -3.300781 1.246094 C -2.003906 -1.027344 -0.703125 -3.355469 0.972656 -5.410156 C 3.625 -8.984375 7.359375 -12.230469 11.960938 -12.71875 C 11.363281 -11.636719 10.933594 -10.066406 9.523438 -9.742188 C 9.523438 -9.742188 6.601562 -9.472656 5.03125 -7.738281 C 4.167969 -6.65625 3.191406 -4.925781 4.492188 -3.898438 C 6.820312 -2.761719 10.121094 -6.277344 11.09375 -8.171875 C 11.417969 -8.117188 11.796875 -8.117188 12.121094 -8.117188 C 13.964844 -8.117188 16.128906 -8.386719 19.375 -9.199219 L 21.484375 -9.851562 C 27.332031 -11.796875 32.09375 -13.585938 32.203125 -13.585938 C 32.582031 -13.746094 32.796875 -14.179688 32.632812 -14.558594 Z M 11.09375 -25.273438 C 14.394531 -28.089844 17.914062 -30.957031 22.242188 -31.875 C 23.21875 -31.984375 24.734375 -32.308594 25.328125 -31.226562 C 25.328125 -29.171875 23.488281 -27.710938 22.082031 -26.519531 C 15.804688 -22.027344 8.820312 -18.832031 2.003906 -15.316406 C 4.65625 -18.941406 7.792969 -22.242188 11.09375 -25.273438 Z M 5.304688 -5.25 C 4.816406 -7.523438 9.523438 -8.386719 9.523438 -8.386719 C 9.523438 -8.386719 5.628906 -3.789062 5.304688 -5.25 Z M 5.304688 -5.25 "/></g></g></g></svg>